<?xml version="1.0" standalone="no"?><!DOCTYPE svg PUBLIC "-//W3C//DTD SVG 1.1//EN" "http://www.w3.org/Graphics/SVG/1.1/DTD/svg11.dtd"><svg class="icon" style="" viewBox="0 0 1024 1024" version="1.1" xmlns="http://www.w3.org/2000/svg" p-id="22502" xmlns:xlink="http://www.w3.org/1999/xlink" width="64" height="64"><defs><style type="text/css"><![CDATA[

]]></style></defs><path d="M513.022795 64.815191c-246.972904 0-447.184809 200.211904-447.184809 447.184809s200.211904 447.184809 447.184809 447.184809 447.184809-200.211904 447.184809-447.184809S759.995699 64.815191 513.022795 64.815191zM513.022795 923.369092c-232.844116 0-411.369092-178.524976-411.369092-411.369092s178.524976-411.369092 411.369092-411.369092 411.369092 178.524976 411.369092 411.369092S745.86691 923.369092 513.022795 923.369092zM337.866542 735.329415c-9.890254 0-17.907858-8.017604-17.907858-17.907858L319.958684 485.301941c0-9.890254 8.017604-17.907858 17.907858-17.907858s17.907858 8.017604 17.907858 17.907858l0 232.119615C355.774401 727.311811 347.756797 735.329415 337.866542 735.329415zM511.316943 735.329415c-9.890254 0-17.907858-8.017604-17.907858-17.907858L493.409085 343.06238c0-9.890254 8.017604-17.907858 17.907858-17.907858s17.907858 8.017604 17.907858 17.907858l0 374.359176C529.224802 727.311811 521.207198 735.329415 511.316943 735.329415zM684.767344 735.329415c-9.890254 0-17.907858-8.017604-17.907858-17.907858L666.859485 343.06238c0-9.890254 8.017604-17.907858 17.907858-17.907858s17.907858 8.017604 17.907858 17.907858l0 374.359176C702.675202 727.311811 694.657598 735.329415 684.767344 735.329415z" p-id="22503" fill="#ffffff"></path></svg>