<?xml version="1.0" standalone="no"?><!DOCTYPE svg PUBLIC "-//W3C//DTD SVG 1.1//EN" "http://www.w3.org/Graphics/SVG/1.1/DTD/svg11.dtd"><svg width="30" height="30" viewBox="0 0 30 30" version="1.1" xmlns="http://www.w3.org/2000/svg" xmlns:xlink="http://www.w3.org/1999/xlink"><defs><style type="text/css"><![CDATA[
@font-face { font-family: ifont; src: url("http://at.alicdn.com/t/font_1442373896_4754455.eot?#iefix") format("embedded-opentype"), url("http://at.alicdn.com/t/font_1442373896_4754455.woff") format("woff"), url("http://at.alicdn.com/t/font_1442373896_4754455.ttf") format("truetype"), url("http://at.alicdn.com/t/font_1442373896_4754455.svg#ifont") format("svg"); }

]]></style></defs><g class="transform-group"><g transform="scale(0.029296875, 0.029296875)"><path d="M401.408 218.794h-155.648c-40.96 0-77.824 32.768-77.824 77.824v155.648c0 12.288 8.192 20.48 20.48 20.48s20.48-8.192 20.48-20.48v-155.648c0-20.48 16.384-36.864 36.864-36.864h155.648c12.288 0 20.48-8.192 20.48-20.48s-8.192-20.48-20.48-20.48zM856.064 296.618c0-40.96-32.768-77.824-77.824-77.824h-155.648c-12.288 0-20.48 8.192-20.48 20.48s8.192 20.48 20.48 20.48h155.648c20.48 0 36.864 16.384 36.864 36.864v155.648c0 12.288 8.192 20.48 20.48 20.48s20.48-8.192 20.48-20.48v-155.648zM856.064 829.098v-155.648c0-12.288-8.192-20.48-20.48-20.48s-20.48 8.192-20.48 20.48v155.648c0 20.48-16.384 36.864-36.864 36.864h-155.648c-12.288 0-20.48 8.192-20.48 20.48s8.192 20.48 20.48 20.48h155.648c40.96 0 77.824-32.768 77.824-77.824zM167.936 829.098c0 40.96 32.768 77.824 77.824 77.824h155.648c12.288 0 20.48-8.192 20.48-20.48s-8.192-20.48-20.48-20.48h-155.648c-20.48 0-36.864-16.384-36.864-36.864v-155.648c0-12.288-8.192-20.48-20.48-20.48s-20.48 8.192-20.48 20.48v155.648zM434.176 456.362l-159.744-159.744c-8.192-8.192-20.48-8.192-28.672 0s-8.192 20.48 0 28.672l159.744 159.744c4.096 4.096 8.192 4.096 16.384 4.096s12.288 0 16.384-4.096c4.096-8.192 4.096-20.48-4.096-28.672zM589.824 673.45l159.744 159.744c4.096 4.096 8.192 4.096 16.384 4.096s12.288 0 16.384-4.096c8.192-8.192 8.192-20.48 0-28.672l-159.744-159.744c-8.192-8.192-20.48-8.192-28.672 0s-12.288 20.48-4.096 28.672zM606.208 493.226c4.096 0 12.288 0 16.384-4.096l155.648-163.84c8.192-8.192 8.192-20.48 0-28.672s-20.48-8.192-28.672 0l-159.744 159.744c-8.192 8.192-8.192 20.48 0 28.672 4.096 4.096 8.192 8.192 16.384 8.192zM405.504 640.682l-159.744 163.84c-8.192 8.192-8.192 20.48 0 28.672 4.096 4.096 8.192 4.096 16.384 4.096s12.288 0 16.384-4.096l159.744-159.744c8.192-8.192 8.192-20.48 0-28.672s-24.576-8.192-32.768-4.096z" fill="#ffffff"></path></g></g></svg>