<?xml version="1.0" standalone="no"?><!DOCTYPE svg PUBLIC "-//W3C//DTD SVG 1.1//EN" "http://www.w3.org/Graphics/SVG/1.1/DTD/svg11.dtd"><svg width="30" height="30" viewBox="0 0 30 30" version="1.1" xmlns="http://www.w3.org/2000/svg" xmlns:xlink="http://www.w3.org/1999/xlink"><defs><style type="text/css"><![CDATA[
@font-face { font-family: ifont; src: url("http://at.alicdn.com/t/font_1442373896_4754455.eot?#iefix") format("embedded-opentype"), url("http://at.alicdn.com/t/font_1442373896_4754455.woff") format("woff"), url("http://at.alicdn.com/t/font_1442373896_4754455.ttf") format("truetype"), url("http://at.alicdn.com/t/font_1442373896_4754455.svg#ifont") format("svg"); }

]]></style></defs><g class="transform-group"><g transform="scale(0.029296875, 0.029296875)"><path d="M849.69377 320.276227C836.570144 315.540898 822.093565 322.44095 817.493533 335.564576L798.011034 390.223802C775.14616 338.676362 739.022362 293.352499 693.022022 259.393423 546.768 151.157329 338.413517 180.651665 228.824471 325.41744 175.788784 395.500314 153.329794 481.818598 165.776945 568.407475 178.224096 655.402237 224.359732 732.385158 295.389668 785.01496 354.91952 828.985872 424.596506 850.362502 493.732314 850.362502 594.797766 850.362502 694.510269 805.038637 759.587219 719.126237 788.405082 681.108307 808.022874 638.625642 818.170006 592.625302 821.146499 578.960493 812.48761 565.566278 798.958099 562.589786 785.428589 559.613293 771.899075 568.136883 768.922582 581.801693 760.398989 620.631392 743.75769 656.619891 719.40457 688.684835 626.456822 811.397507 449.626102 836.427104 325.425184 744.426422 265.218857 699.91433 226.253863 634.837376 215.700843 561.236832 205.147824 488.042173 224.08914 415.118106 269.00712 355.858842 361.819571 233.146171 538.514998 207.981278 662.85121 299.981959 707.904486 333.264557 741.59297 379.400192 759.857811 431.488813L673.133638 397.665034C660.145309 392.659114 645.533434 399.017984 640.392221 412.006317 635.251005 424.99465 641.745171 439.606522 654.733504 444.747734L782.452096 494.671635C785.428586 495.88929 788.540374 496.43047 791.652163 496.43047 792.058048 496.43047 792.463933 496.295174 792.869818 496.295174 793.816886 496.43047 794.763952 496.836355 795.711018 496.836355 806.128739 496.836355 815.869987 490.342189 819.522957 480.05976L864.982115 352.882349C869.58215 339.488134 862.817395 325.011555 849.69377 320.276227L849.69377 320.276227Z" fill="#fff"></path></g></g></svg>