<?xml version="1.0" standalone="no"?><!DOCTYPE svg PUBLIC "-//W3C//DTD SVG 1.1//EN" "http://www.w3.org/Graphics/SVG/1.1/DTD/svg11.dtd"><svg t="1481091288620" class="icon" style="" viewBox="0 0 1024 1024" version="1.1" xmlns="http://www.w3.org/2000/svg" p-id="1475" xmlns:xlink="http://www.w3.org/1999/xlink" width="40" height="40"><defs><style type="text/css"></style></defs><path d="M837.815577 467.461621c-9.875928 0-18.798135-6.78145-21.11797-16.805758-18.956747-81.972966-68.62189-151.570067-139.860375-195.989743-70.931492-44.229341-154.790412-58.152445-236.19135-39.248909-115.319445 26.808576-204.752314 115.117854-233.415121 230.427066-2.90312 11.634991-14.739702 18.564821-26.299993 15.830547-11.634991-2.90312-18.7132-14.665001-15.830547-26.299993 32.626072-131.224694 134.435829-231.699036 265.712711-262.216074 92.675726-21.594831 188.201359-5.722328 268.987291 44.674479 81.08269 50.544163 137.614218 129.762389 159.177326 223.030609 2.702552 11.676947-4.577249 23.333428-16.255219 26.046213C841.078901 467.292775 839.436494 467.461621 837.815577 467.461621z" p-id="1476" fill="#ffffff"></path><path d="M839.721996 467.017506c-2.702552 0-5.414313-0.508583-7.978718-1.52575l-104.564497-41.325198c-11.146874-4.408403-16.604166-16.996093-12.20702-28.14399 4.408403-11.146874 17.017582-16.635889 28.16548-12.20702l84.33578 33.336246 33.251312-84.622306c4.376681-11.168364 16.943904-16.635889 28.132734-12.270465 11.158131 4.386914 16.647145 16.975627 12.260232 28.122501l-41.198308 104.861256c-2.109034 5.382591-6.262634 9.68457-11.550057 11.973706C845.614194 466.423989 842.668095 467.017506 839.721996 467.017506z" p-id="1477" fill="#ffffff"></path><path d="M511.904833 860.246449c-65.792449 0-130.451074-18.352997-187.703009-54.06229-81.08269-50.544163-137.614218-129.762389-159.177326-223.030609-2.702552-11.676947 4.577249-23.333428 16.255219-26.046213 11.623735-2.712785 23.311939 4.577249 26.024723 16.255219 18.956747 81.972966 68.62189 151.570067 139.860375 195.989743 70.942749 44.249807 154.843624 58.173934 236.19135 39.248909 115.319445-26.808576 204.752314-115.117854 233.415121-230.427066 2.892887-11.634991 14.623046-18.691711 26.299993-15.830547 11.634991 2.90312 18.7132 14.665001 15.830547 26.299993-32.626072 131.224694-134.435829 231.699036-265.712711 262.216074C566.18918 857.151971 538.946722 860.246449 511.904833 860.246449z" p-id="1478" fill="#ffffff"></path><path d="M143.06844 705.264679c-2.638083 0-5.319146-0.487094-7.92653-1.50426-11.158131-4.386914-16.647145-16.975627-12.260232-28.122501l41.198308-104.861256c2.109034-5.382591 6.262634-9.68457 11.550057-11.973706 5.287423-2.309602 11.274788-2.416026 16.625656-0.275269l104.564497 41.325198c11.146874 4.408403 16.604166 16.996093 12.20702 28.14399-4.408403 11.146874-17.027815 16.657378-28.16548 12.20702l-84.33578-33.336246-33.251312 84.622306C159.916153 700.050933 151.735843 705.264679 143.06844 705.264679z" p-id="1479" fill="#ffffff"></path></svg>